<?xml version="1.0" encoding="utf-8"?>
<svg version="1.1" xmlns="http://www.w3.org/2000/svg" xmlns:xlink="http://www.w3.org/1999/xlink" x="0px" y="0px"
	 width="951.855px" height="238.288px" viewBox="0 0 951.855 238.288" enable-background="new 0 0 951.855 238.288"
	 xml:space="preserve">
<g fill="#FDFDFD" stroke="#FDFDFD" id="Layer_1">
	<g opacity="0.8">
		<path stroke-miterlimit="10" d="M42.152,121.68v62.154H17.981V69.021h24.171v20.934
			c3.885-7.048,9.243-12.588,16.078-16.618c6.832-4.026,14.207-6.043,22.121-6.043c12.949,0,23.416,3.959,31.401,11.87
			c7.985,7.914,11.978,19.352,11.978,34.314v70.355H99.559v-63.018c0-21.15-8.778-31.725-26.33-31.725
			c-8.346,0-15.613,2.772-21.797,8.309C45.244,102.941,42.152,111.035,42.152,121.68z"/>
		<path stroke-miterlimit="10" d="M200.99,67.295c15.68,0,28.703,4.354,39.062,13.057
			c10.359,8.707,15.609,20.037,15.754,33.991l0.216,0.432l-83.736,35.178c7.479,9.209,17.66,13.813,30.538,13.813
			c12.875,0,23.486-5.035,31.833-15.107l14.244,15.755c-13.67,14.102-29.782,21.149-48.342,21.149
			c-16.26,0-30.214-5.396-41.868-16.187c-11.654-10.79-17.481-25.034-17.481-42.73c0-12.228,3.021-22.984,9.064-32.264
			c6.042-9.28,13.522-16.112,22.444-20.502C181.638,69.49,191.063,67.295,200.99,67.295z M164.518,127.076
			c0,1.871,0.071,3.237,0.216,4.1l63.665-27.408c-4.893-9.496-13.596-14.244-26.113-14.244c-9.496,0-18.166,3.312-26.006,9.927
			C168.436,106.071,164.518,115.28,164.518,127.076z"/>
		<path stroke-miterlimit="10" d="M352.491,131.176V69.021h24.171v114.813h-24.171v-20.934
			c-3.885,7.051-9.246,12.591-16.078,16.617c-6.835,4.029-14.21,6.043-22.121,6.043c-12.949,0-23.416-3.955-31.401-11.87
			c-7.985-7.91-11.978-19.349-11.978-34.314V69.021h24.171v63.018c0,21.149,8.774,31.725,26.33,31.725
			c8.342,0,15.609-2.769,21.797-8.31C349.396,149.918,352.491,141.825,352.491,131.176z"/>
		<path stroke-miterlimit="10" d="M426.083,88.445v58.27c0,5.47,1.437,9.819,4.316,13.057
			c2.876,3.237,6.906,4.856,12.085,4.856c5.18,0,10.144-2.516,14.892-7.554l9.927,17.049c-8.491,7.628-17.879,11.438-28.164,11.438
			c-10.289,0-19.066-3.561-26.33-10.683c-7.267-7.122-10.898-16.726-10.898-28.812V32.98h24.171v36.041h30.214v19.423H426.083z"/>
		<path stroke-miterlimit="10" d="M538.089,91.682c-11.944,0-20.935,3.885-26.978,11.654
			c-6.042,7.77-9.063,18.203-9.063,31.293v49.205h-24.171V69.021h24.171v23.092c3.885-7.193,9.172-13.091,15.862-17.697
			c6.69-4.603,13.774-6.977,21.258-7.122l0.216,24.387C538.953,91.682,538.521,91.682,538.089,91.682z"/>
		<path stroke-width="2" stroke-miterlimit="10" d="M562.905,46.146
			c-3.021-3.021-4.531-6.616-4.531-10.791c0-4.171,1.511-7.769,4.531-10.791c3.021-3.021,6.616-4.532,10.791-4.532
			c4.171,0,7.77,1.511,10.791,4.532s4.532,6.619,4.532,10.791c0,4.175-1.511,7.77-4.532,10.791
			c-3.021,3.021-6.62,4.532-10.791,4.532C569.521,50.677,565.926,49.167,562.905,46.146z M585.566,183.834h-24.172V69.021h24.172
			V183.834z"/>
		<path stroke-width="2" stroke-miterlimit="10" d="M642.538,121.68v62.154h-24.172V69.021h24.172
			v20.934c3.885-7.048,9.242-12.588,16.078-16.618c6.832-4.026,14.206-6.043,22.121-6.043c12.948,0,23.415,3.959,31.4,11.87
			c7.985,7.914,11.978,19.352,11.978,34.314v70.355h-24.171v-63.018c0-21.15-8.777-31.725-26.329-31.725
			c-8.346,0-15.613,2.772-21.798,8.309C645.629,102.941,642.538,111.035,642.538,121.68z"/>
		<path stroke-width="2" stroke-miterlimit="10" d="M807.85,67.295
			c15.68,0,28.703,4.354,39.063,13.057c10.358,8.707,15.609,20.037,15.754,33.991l0.216,0.432l-83.735,35.178
			c7.479,9.209,17.659,13.813,30.537,13.813c12.875,0,23.487-5.035,31.833-15.107l14.243,15.755
			c-13.67,14.102-29.782,21.149-48.342,21.149c-16.261,0-30.214-5.396-41.868-16.187c-11.653-10.79-17.48-25.034-17.48-42.73
			c0-12.228,3.021-22.984,9.063-32.264c6.043-9.28,13.522-16.112,22.445-20.502C788.498,69.49,797.922,67.295,807.85,67.295z
			 M771.377,127.076c0,1.871,0.07,3.237,0.216,4.1l63.665-27.408c-4.893-9.496-13.597-14.244-26.113-14.244
			c-9.496,0-18.166,3.312-26.006,9.927C775.295,106.071,771.377,115.28,771.377,127.076z"/>
		<path stroke-width="2" stroke-miterlimit="10" d="M908.635,88.445v58.27
			c0,5.47,1.437,9.819,4.316,13.057c2.876,3.237,6.905,4.856,12.085,4.856s10.144-2.516,14.892-7.554l9.927,17.049
			c-8.49,7.628-17.878,11.438-28.163,11.438c-10.288,0-19.066-3.561-26.329-10.683c-7.268-7.122-10.899-16.726-10.899-28.812V32.98
			h24.172v36.041h30.214v19.423H908.635z"/>
	</g>
	<g>
	</g>
	<g>
	</g>
	<g>
	</g>
	<g>
	</g>
	<g>
	</g>
	<g>
	</g>
	<g>
	</g>
	<g>
	</g>
	<g>
	</g>
	<g>
	</g>
	<g>
	</g>
	<g>
	</g>
	<g>
	</g>
	<g>
	</g>
	<g>
	</g>
</g>
</svg>
